PathFileType	4	(X/Y/Z)	C:/Users/opensim2020/Desktop/walking_exp_matlab/subject06_walking23_straight_02.trc																																																																																																																																					
DataRate	CameraRate	NumFrames	NumMarkers	Units	OrigDataRate	OrigDataStartFrame	OrigNumFrames																																																																																																																																	
100	100	5	45	mm	100	1362	114																																																																																																																																	
Frame#	Time	LFHD			RFHD			LBHD			RBHD			C7			T10			CLAV			STRN			RBAK			LSHO			LUPA			LELB			LFRM			LWRA			LWRB			LFIN			RSHO			RUPA			RELB			RFRM			RWRA			RWRB			RFIN			LASI			RASI			LPSI			RPSI			LTHI			LKNE			LTIB			LANK			LHEE			LTOE			RTHI			RKNE			RTIB			RANK			RHEE			RTOE			*39			*40			*41			*42			*43			*44		
		X1	Y1	Z1	X2	Y2	Z2	X3	Y3	Z3	X4	Y4	Z4	X5	Y5	Z5	X6	Y6	Z6	X7	Y7	Z7	X8	Y8	Z8	X9	Y9	Z9	X10	Y10	Z10	X11	Y11	Z11	X12	Y12	Z12	X13	Y13	Z13	X14	Y14	Z14	X15	Y15	Z15	X16	Y16	Z16	X17	Y17	Z17	X18	Y18	Z18	X19	Y19	Z19	X20	Y20	Z20	X21	Y21	Z21	X22	Y22	Z22	X23	Y23	Z23	X24	Y24	Z24	X25	Y25	Z25	X26	Y26	Z26	X27	Y27	Z27	X28	Y28	Z28	X29	Y29	Z29	X30	Y30	Z30	X31	Y31	Z31	X32	Y32	Z32	X33	Y33	Z33	X34	Y34	Z34	X35	Y35	Z35	X36	Y36	Z36	X37	Y37	Z37	X38	Y38	Z38	X39	Y39	Z39	X40	Y40	Z40	X41	Y41	Z41	X42	Y42	Z42	X43	Y43	Z43	X44	Y44	Z44	X45	Y45	Z45
																																																																																																																																								
86	0.85	391.20721	1631.95898	895.05859	414.51019	1632.40527	1025.59045	259.45724	1581.25269	923.41809	284.40927	1586.19727	1050.79419	268.74716	1422.79333	977.80023	248.23282	1091.9408	984.51196	384.16962	1352.59314	976.57196	433.61673	1182.08972	968.10187	204.72614	1248.01001	1053.5658	322.7775	1379.74976	816.10797	347.5119	1180.81714	742.37885	367.38431	1071.34814	728.50775	477.31415	972.86237	712.64539	597.27008	942.07098	762.13672	562.64532	891.07227	727.96173	650.42169	871.76129	728.50488	336.79742	1380.31604	1138.96069	269.23657	1191.96814	1226.28137	256.05203	1070.10168	1240.34753	240.41673	951.34149	1261.87878	256.99731	798.87585	1235.50586	207.25485	817.9317	1277.953	216.21864	732.45587	1278.36267	423.5907	933.50543	875.50348	440.9704	956.84229	1093.55994	267.6066	955.57996	910.59375	284.14435	971.66791	1076.56372	335.7244	610.92334	822.03882	325.60712	447.30951	836.6839	119.32056	305.76328	848.51208	-17.191	202.82645	887.07513	-42.19245	232.53061	933.94672	7.36488	56.55661	899.15863	468.47168	633.32141	1161.06946	513.41541	517.36188	1128.56543	507.37946	248.6561	1119.86072	510.95038	66.64213	1065.35938	475.02274	43.96585	1017.92578	666.46295	32.2476	1071.04321	303.46652	1677.53601	967.89746	NaN	NaN	NaN	NaN	NaN	NaN	NaN	NaN	NaN	NaN	NaN	NaN	NaN	NaN	NaN
87	0.86	404.81357	1634.74292	895.92145	428.64468	1634.96912	1026.31995	273.44217	1583.63196	924.87653	298.62967	1588.52722	1051.93323	282.91364	1425.5907	979.03589	261.63062	1094.85266	985.65936	398.09326	1355.10144	977.16644	447.1955	1184.41565	968.54443	218.92256	1250.9917	1054.98157	336.17313	1382.21814	817.0849	359.97549	1183.09229	743.8078	377.57486	1073.12854	730.34387	485.29358	971.68793	713.7489	604.90753	937.54895	762.37793	568.59869	887.43329	728.24084	655.67664	865.67383	728.42932	351.94122	1382.88782	1139.80847	286.34543	1193.92688	1228.01953	274.12564	1072.10413	1242.18176	260.20773	953.0899	1263.78052	279.08041	800.91925	1236.98901	229.21815	819.29138	1280.02795	239.63496	734.00641	1280.43518	436.90924	935.97491	876.30994	453.82977	959.40674	1094.95459	280.73819	957.58862	911.72791	297.23334	973.86078	1077.82849	355.24338	612.12305	823.84064	350.12109	448.79279	837.89233	144.63023	308.56815	848.14429	4.53005	210.01346	886.93781	-20.1735	239.61938	934.14752	26.65863	61.96389	897.54907	477.05258	633.38586	1161.69385	521.64954	517.12799	1129.74658	509.67877	248.49222	1120.14575	510.97821	66.71367	1065.18872	474.97913	44.14151	1017.77795	666.49817	32.04542	1071.20947	317.25272	1680.06152	969.22754	NaN	NaN	NaN	NaN	NaN	NaN	NaN	NaN	NaN	NaN	NaN	NaN	NaN	NaN	NaN
88	0.87	418.4592	1637.55835	896.77429	442.67139	1637.49524	1026.99243	286.81638	1586.63062	925.80566	312.81708	1590.88782	1053.02869	296.88318	1428.48999	980.18933	275.07596	1097.71692	986.78058	411.84427	1357.59375	977.76093	460.535	1186.81274	969.11621	232.85597	1254.20483	1056.53491	349.3952	1384.67175	817.94244	371.91754	1185.27075	744.9953	387.64539	1074.66211	731.88776	492.66901	970.29004	714.82886	612.0274	932.70654	762.56354	573.57544	883.81702	728.71826	660.13312	859.11389	728.39246	366.86359	1385.59302	1140.58191	303.45767	1196.09729	1229.63379	292.14972	1074.24438	1243.94714	280.22275	955.0022	1265.5542	301.50513	803.30524	1238.27417	251.73483	820.7558	1281.79578	263.85754	735.76849	1282.28979	449.92633	938.69537	876.87683	466.63321	961.74982	1095.90344	293.75626	959.68304	913.16925	310.52548	976.19983	1078.89026	374.57178	613.87946	825.42053	374.50101	450.78424	839.2934	169.27678	311.63968	847.95929	27.00752	216.42841	887.34283	0.48306	244.54515	934.6239	52.68047	68.11493	896.60547	485.43271	633.04895	1161.93127	529.56171	516.71466	1130.64429	511.85385	248.59657	1120.35535	511.20752	66.99265	1064.91003	474.96124	44.47368	1017.49261	666.66986	31.8805	1071.17944	331.18863	1682.6709	970.35089	NaN	NaN	NaN	NaN	NaN	NaN	NaN	NaN	NaN	NaN	NaN	NaN	NaN	NaN	NaN
89	0.88	432.05975	1640.1698	897.24927	456.74045	1639.90222	1027.51331	300.81332	1589.03052	926.86389	326.95642	1593.43872	1053.91968	310.38596	1431.27686	981.44849	288.11597	1100.56018	988.12939	425.33853	1360.04016	978.31348	473.80133	1189.25867	969.79706	246.84645	1257.49097	1058.24646	362.32129	1386.98059	818.81207	383.53131	1187.45776	745.77826	397.34854	1076.0863	733.31946	499.76181	968.70001	715.78064	618.42102	927.53143	762.71527	578.01135	879.89868	729.45575	663.76862	852.28448	728.36768	381.51913	1388.44568	1141.3219	320.4216	1198.5155	1231.29565	310.17957	1076.578	1245.63025	300.34845	957.14862	1267.22095	323.80298	805.84436	1239.59241	274.61105	822.37762	1283.33496	288.69443	737.85065	1283.99524	462.83514	941.48633	877.3443	479.40985	963.9101	1096.60413	306.57272	961.94653	914.73065	323.52878	978.22662	1080.58911	394.13501	616.07294	827.30219	398.77185	453.31952	840.81451	193.43784	315.53815	848.99792	51.48266	220.63795	887.68188	22.89182	247.63875	934.43237	82.13572	73.79456	895.71344	494.08002	632.9906	1162.07703	537.27521	516.4967	1131.22339	514.23712	248.9686	1120.58997	511.35007	67.21783	1064.74634	475.00885	44.70236	1017.36078	666.69867	31.67619	1071.30737	345.08572	1685.25378	971.35309	NaN	NaN	NaN	NaN	NaN	NaN	NaN	NaN	NaN	NaN	NaN	NaN	NaN	NaN	NaN
90	0.89	445.73773	1642.54858	897.96094	470.73196	1642.276	1027.93579	314.18915	1591.87878	927.39282	341.02344	1596.02173	1054.70691	324.2002	1433.93237	982.29858	301.0614	1103.36389	989.51288	438.70111	1362.43896	978.85046	486.92264	1191.6333	970.54901	260.49954	1260.75635	1060.11621	374.89365	1389.24866	819.56671	393.97867	1189.46082	746.70428	407.10675	1077.58435	734.48566	506.32471	966.96631	716.69598	624.20294	922.11249	762.88483	582.03809	875.93567	730.08472	666.63867	845.20593	728.41425	396.07434	1391.38574	1141.88452	337.39359	1201.01453	1232.97107	328.03952	1079.0824	1247.25793	320.5629	959.479	1268.77417	346.96942	808.78149	1240.48157	297.82291	824.17462	1284.71875	313.77133	739.95282	1285.41064	476.0351	944.49969	877.86542	492.25885	965.85486	1097.21521	319.32083	964.33612	916.21356	336.55194	980.24725	1082.13	413.48657	618.61981	828.85663	422.76129	456.32217	842.46857	218.38531	319.57397	850.21753	77.05502	222.80122	888.12708	46.58797	248.88275	934.48602	113.09085	77.97208	894.60095	502.79822	633.47198	1162.39368	544.39758	516.20575	1131.33484	516.73822	249.26724	1120.91101	511.47504	67.51865	1064.71509	474.96234	45.02942	1017.34595	666.73822	31.53764	1071.38416	359.05356	1687.86255	972.073	NaN	NaN	NaN	NaN	NaN	NaN	NaN	NaN	NaN	NaN	NaN	NaN	NaN	NaN	NaN
